<svg width="18" height="18" viewBox="0 0 18 18" fill="none" xmlns="http://www.w3.org/2000/svg">
<path d="M5.66667 7.33333L9 9M5.66667 7.33333V10.6667L9 12.3333M5.66667 7.33333L9 5.66667L12.3333 7.33333M9 9L12.3333 7.33333M9 9V12.3333M9 12.3333L12.3333 10.6667V7.33333M6.83333 16.5C4.96667 16.5 4.03333 16.5 3.32 16.1367C2.69282 15.8171 2.18291 15.3072 1.86333 14.68C1.5 13.9667 1.5 13.0333 1.5 11.1667M16.5 11.1667C16.5 13.0333 16.5 13.9667 16.1367 14.68C15.8171 15.3072 15.3072 15.8171 14.68 16.1367C13.9667 16.5 13.0333 16.5 11.1667 16.5M11.1667 1.5C13.0333 1.5 13.9667 1.5 14.68 1.86333C15.3072 2.18291 15.8171 2.69282 16.1367 3.32C16.5 4.03333 16.5 4.96667 16.5 6.83333M6.83333 1.5C4.96667 1.5 4.03333 1.5 3.32 1.86333C2.69282 2.18291 2.18291 2.69282 1.86333 3.32C1.5 4.03333 1.5 4.96667 1.5 6.83333" stroke="white" stroke-width="1.5" stroke-linecap="round" stroke-linejoin="round"/>
</svg>
