<svg width="14" height="14" viewBox="0 0 14 14" fill="none" xmlns="http://www.w3.org/2000/svg">
<g clip-path="url(#clip0_803_1390)">
<path d="M9.8125 2.12752C11.4938 3.1001 12.625 4.91796 12.625 7M9.8125 2.12752V4.1875M9.8125 2.12752H11.8725M11.8725 9.8125C10.8999 11.4938 9.08204 12.625 7 12.625M11.8725 9.8125H9.8125M11.8725 9.8125V11.8725M4.1875 11.8725C2.50618 10.8999 1.375 9.08204 1.375 7M4.1875 11.8725V9.8125M4.1875 11.8725H2.12752M2.12752 4.1875C3.1001 2.50618 4.91796 1.375 7 1.375M2.12752 4.1875H4.1875M2.12752 4.1875V2.12752" stroke="#726C56" stroke-linecap="round" stroke-linejoin="round"/>
<path d="M11.8725 9.8125C10.8999 11.4938 9.08204 12.625 7 12.625M11.8725 9.8125H9.8125M11.8725 9.8125V11.8725" stroke="#726C56" stroke-linecap="round" stroke-linejoin="round"/>
<path d="M4.1875 11.8725C2.50618 10.8999 1.375 9.08204 1.375 7M4.1875 11.8725V9.8125M4.1875 11.8725H2.12752" stroke="#726C56" stroke-linecap="round" stroke-linejoin="round"/>
<path d="M2.12756 4.1875C3.10016 2.50618 4.91799 1.375 7.00003 1.375M2.12756 4.1875H4.18753M2.12756 4.1875V2.12752" stroke="#726C56" stroke-linecap="round" stroke-linejoin="round"/>
<path d="M9.8125 2.12744C11.4938 3.10004 12.625 4.91787 12.625 6.99991M9.8125 2.12744V4.18741M9.8125 2.12744H11.8725" stroke="#726C56" stroke-linecap="round" stroke-linejoin="round"/>
</g>
<defs>
<clipPath id="clip0_803_1390">
<rect width="13.5" height="13.5" fill="white" transform="translate(0.25 0.25)"/>
</clipPath>
</defs>
</svg>
