<svg width="14" height="14" viewBox="0 0 14 14" fill="none" xmlns="http://www.w3.org/2000/svg">
<path d="M4.29992 1.00001L3.35325 2.46001L4.29992 3.93334H4.29325L2.96658 6.00001L1.81325 5.40001L2.75992 3.92668L1.81325 2.46001L3.14658 0.393343L4.29992 1.00001ZM8.29992 0.926677L7.35325 2.40001L8.29992 3.86668L8.29325 3.87334L6.96658 5.93334L5.81325 5.33334L6.75992 3.86668L5.81325 2.40001L7.14658 0.333344L8.29992 0.926677ZM12.3333 0.926677L11.3733 2.40001L12.3333 3.86668V3.87334L10.9999 5.93334L9.83325 5.33334L10.7799 3.86668L9.83325 2.40001L11.1666 0.333344L12.3333 0.926677ZM0.333252 13.6667V8.33334C0.333252 7.97972 0.473728 7.64058 0.723776 7.39053C0.973825 7.14049 1.31296 7.00001 1.66659 7.00001H12.3333C12.6869 7.00001 13.026 7.14049 13.2761 7.39053C13.5261 7.64058 13.6666 7.97972 13.6666 8.33334V13.6667H12.3333V12.3333H1.66659V13.6667H0.333252ZM2.99992 8.33334C2.82311 8.33334 2.65354 8.40358 2.52851 8.52861C2.40349 8.65363 2.33325 8.8232 2.33325 9.00001V10.3333C2.33325 10.5102 2.40349 10.6797 2.52851 10.8047C2.65354 10.9298 2.82311 11 2.99992 11C3.17673 11 3.3463 10.9298 3.47132 10.8047C3.59635 10.6797 3.66658 10.5102 3.66658 10.3333V9.00001C3.66658 8.8232 3.59635 8.65363 3.47132 8.52861C3.3463 8.40358 3.17673 8.33334 2.99992 8.33334ZM5.66658 8.33334C5.48977 8.33334 5.3202 8.40358 5.19518 8.52861C5.07016 8.65363 4.99992 8.8232 4.99992 9.00001V10.3333C4.99992 10.5102 5.07016 10.6797 5.19518 10.8047C5.3202 10.9298 5.48977 11 5.66658 11C5.8434 11 6.01297 10.9298 6.13799 10.8047C6.26301 10.6797 6.33325 10.5102 6.33325 10.3333V9.00001C6.33325 8.8232 6.26301 8.65363 6.13799 8.52861C6.01297 8.40358 5.8434 8.33334 5.66658 8.33334ZM8.33325 8.33334C8.15644 8.33334 7.98687 8.40358 7.86185 8.52861C7.73682 8.65363 7.66658 8.8232 7.66658 9.00001V10.3333C7.66658 10.5102 7.73682 10.6797 7.86185 10.8047C7.98687 10.9298 8.15644 11 8.33325 11C8.51006 11 8.67963 10.9298 8.80466 10.8047C8.92968 10.6797 8.99992 10.5102 8.99992 10.3333V9.00001C8.99992 8.8232 8.92968 8.65363 8.80466 8.52861C8.67963 8.40358 8.51006 8.33334 8.33325 8.33334ZM10.9999 8.33334C10.8231 8.33334 10.6535 8.40358 10.5285 8.52861C10.4035 8.65363 10.3333 8.8232 10.3333 9.00001V10.3333C10.3333 10.5102 10.4035 10.6797 10.5285 10.8047C10.6535 10.9298 10.8231 11 10.9999 11C11.1767 11 11.3463 10.9298 11.4713 10.8047C11.5963 10.6797 11.6666 10.5102 11.6666 10.3333V9.00001C11.6666 8.8232 11.5963 8.65363 11.4713 8.52861C11.3463 8.40358 11.1767 8.33334 10.9999 8.33334Z" fill="white"/>
</svg>
