<svg width="20" height="20" viewBox="0 0 20 20" fill="none" xmlns="http://www.w3.org/2000/svg">
<path fill-rule="evenodd" clip-rule="evenodd" d="M10 2.29166C8.86102 2.29188 7.74893 2.63786 6.81084 3.28385C5.87276 3.92983 5.15288 4.84537 4.74642 5.90937C4.33997 6.97337 4.2661 8.13569 4.53458 9.24258C4.80306 10.3495 5.40125 11.3488 6.25 12.1083L6.2525 12.1117C6.71667 12.5275 7.06917 12.8425 7.32084 13.0742C7.55834 13.2908 7.74584 13.4692 7.845 13.5908L7.855 13.6033C8.04 13.8308 8.20001 14.0292 8.30667 14.2667C8.41251 14.5033 8.45251 14.7558 8.49917 15.045L8.50167 15.0617C8.52584 15.21 8.535 15.3917 8.53917 15.625H11.4608C11.465 15.3917 11.4742 15.21 11.4983 15.0617L11.5008 15.045C11.5475 14.7558 11.5875 14.5033 11.6933 14.2667C11.8 14.0292 11.96 13.8308 12.145 13.6033L12.155 13.5908C12.2542 13.4692 12.4417 13.2908 12.6792 13.0742C12.9308 12.8425 13.2833 12.5275 13.7475 12.1117L13.7508 12.1083C14.5996 11.3487 15.1979 10.3494 15.4663 9.24238C15.7348 8.13541 15.6608 6.97302 15.2543 5.90898C14.8477 4.84494 14.1277 3.92941 13.1895 3.28349C12.2513 2.63757 11.1391 2.29171 10 2.29166ZM11.4533 16.875H8.54667C8.55 16.9611 8.55445 17.0381 8.56001 17.1058C8.57667 17.2933 8.60584 17.3617 8.62584 17.3958C8.68063 17.4906 8.75937 17.5694 8.85417 17.6242C8.88751 17.6442 8.95667 17.6725 9.14417 17.69C9.34 17.7075 9.59917 17.7083 10 17.7083C10.4008 17.7083 10.66 17.7083 10.8558 17.69C11.0433 17.6733 11.1117 17.6442 11.1458 17.6242C11.2406 17.5694 11.3194 17.4906 11.3742 17.3958C11.3942 17.3625 11.4233 17.2933 11.44 17.1058C11.4456 17.0381 11.45 16.9611 11.4533 16.875ZM3.125 7.91667C3.12509 6.76999 3.41198 5.64154 3.95957 4.63406C4.50716 3.62658 5.29805 2.77206 6.26023 2.14831C7.22242 1.52455 8.32534 1.15137 9.46859 1.06274C10.6118 0.974101 11.7591 1.17283 12.8059 1.64083C13.8527 2.10882 14.7659 2.83123 15.4622 3.74227C16.1586 4.65331 16.616 5.72405 16.7928 6.85701C16.9696 7.98997 16.8602 9.14917 16.4746 10.2291C16.089 11.309 15.4394 12.2753 14.585 13.04C14.2295 13.3565 13.8756 13.6749 13.5233 13.995C13.3989 14.1093 13.2767 14.226 13.1567 14.345L13.1267 14.3775C12.91 14.645 12.8625 14.7142 12.835 14.7767C12.8067 14.8392 12.7867 14.92 12.7325 15.26C12.7108 15.3942 12.7083 15.6242 12.7083 16.25V16.2767C12.7083 16.6433 12.7083 16.96 12.685 17.2183C12.66 17.4933 12.605 17.765 12.4575 18.0208C12.2929 18.3061 12.0561 18.5429 11.7708 18.7075C11.515 18.855 11.2433 18.91 10.9692 18.935C10.7092 18.9583 10.3933 18.9583 10.0275 18.9583H9.97334C9.60667 18.9583 9.29001 18.9583 9.03167 18.935C8.75667 18.91 8.485 18.855 8.22917 18.7075C7.94395 18.5429 7.70712 18.3061 7.5425 18.0208C7.395 17.765 7.34 17.4933 7.315 17.2192C7.29167 16.9592 7.29167 16.6433 7.29167 16.2775V16.25C7.29167 15.625 7.28917 15.3942 7.2675 15.26C7.21334 14.92 7.1925 14.8392 7.165 14.7767C7.1375 14.7142 7.09001 14.645 6.87334 14.3767L6.865 14.3683L6.84334 14.3442L6.7625 14.2633C6.66847 14.1726 6.57318 14.0831 6.47667 13.995C6.23084 13.77 5.88334 13.4592 5.415 13.04C4.69363 12.3958 4.11667 11.6063 3.722 10.7233C3.32733 9.8403 3.12388 8.88383 3.125 7.91667Z" fill="#726C56"/>
<path fill-rule="evenodd" clip-rule="evenodd" d="M11.0181 6.575C11.1529 6.67139 11.2439 6.81736 11.2711 6.98081C11.2982 7.14427 11.2594 7.31183 11.1631 7.44666L10.0831 8.95833H11.3689C11.4838 8.95837 11.5964 8.99004 11.6944 9.04986C11.7924 9.10969 11.872 9.19536 11.9245 9.29747C11.977 9.39958 12.0004 9.51418 11.9921 9.6287C11.9837 9.74322 11.944 9.85324 11.8773 9.94666L10.0914 12.4467C10.0446 12.5155 9.98444 12.5744 9.91453 12.6197C9.84463 12.665 9.76637 12.6958 9.68437 12.7104C9.60236 12.7251 9.51826 12.7232 9.43701 12.7048C9.35575 12.6865 9.27899 12.6521 9.21122 12.6036C9.14345 12.5552 9.08605 12.4937 9.04239 12.4227C8.99873 12.3518 8.96968 12.2729 8.95697 12.1905C8.94426 12.1082 8.94813 12.0242 8.96836 11.9434C8.98859 11.8626 9.02477 11.7866 9.07477 11.72L10.1539 10.2083H8.86893C8.75411 10.2083 8.64151 10.1766 8.54351 10.1168C8.4455 10.057 8.36587 9.9713 8.31335 9.86919C8.26083 9.76709 8.23745 9.65248 8.24579 9.53796C8.25413 9.42344 8.29385 9.31343 8.3606 9.22L10.1456 6.72C10.1933 6.65314 10.2538 6.59636 10.3235 6.55288C10.3932 6.5094 10.4708 6.4801 10.5518 6.46663C10.6328 6.45316 10.7157 6.4558 10.7957 6.4744C10.8757 6.49299 10.9513 6.52718 11.0181 6.575Z" fill="#726C56"/>
</svg>
