<svg width="20" height="20" viewBox="0 0 20 20" fill="none" xmlns="http://www.w3.org/2000/svg">
<path d="M9.16569 -0.0032959H10.8357V1.6667H9.16569V-0.0032959ZM3.51902 2.33587L4.69986 3.5167L3.51902 4.69754L2.33819 3.5167L3.51902 2.33587ZM16.4824 2.33587L17.6632 3.5167L16.4824 4.69754L15.3015 3.5167L16.4824 2.33587ZM9.99986 5.00004C8.67377 5.00004 7.402 5.52682 6.46432 6.4645C5.52664 7.40219 4.99986 8.67395 4.99986 10C4.99986 11.3261 5.52664 12.5979 6.46432 13.5356C7.402 14.4733 8.67377 15 9.99986 15C11.3259 15 12.5977 14.4733 13.5354 13.5356C14.4731 12.5979 14.9999 11.3261 14.9999 10C14.9999 8.67395 14.4731 7.40219 13.5354 6.4645C12.5977 5.52682 11.3259 5.00004 9.99986 5.00004ZM3.33319 10C3.33319 8.23193 4.03557 6.53624 5.28581 5.28599C6.53605 4.03575 8.23175 3.33337 9.99986 3.33337C11.768 3.33337 13.4637 4.03575 14.7139 5.28599C15.9641 6.53624 16.6665 8.23193 16.6665 10C16.6665 11.7681 15.9641 13.4638 14.7139 14.7141C13.4637 15.9643 11.768 16.6667 9.99986 16.6667C8.23175 16.6667 6.53605 15.9643 5.28581 14.7141C4.03557 13.4638 3.33319 11.7681 3.33319 10ZM-0.000976562 9.16337H1.66902V10.8334H-0.000976562V9.16337ZM18.3324 9.16337H20.0024V10.8334H18.3324V9.16337ZM3.51902 15.3L4.69986 16.4809L3.51902 17.6625L2.33819 16.4809L3.51902 15.3ZM16.4824 15.3L17.6632 16.4809L16.4824 17.6617L15.3015 16.4809L16.4824 15.3ZM9.16652 18.3309H10.8365V20H9.16652V18.3309Z" fill="white"/>
</svg>
