<svg width="20" height="20" viewBox="0 0 20 20" fill="none" xmlns="http://www.w3.org/2000/svg">
<g clip-path="url(#clip0_654_1115)">
<path d="M18.3335 10H19.1668M10.0002 1.66668V0.833344M10.0002 19.1667V18.3333M16.6668 16.6667L15.8335 15.8333M16.6668 3.33334L15.8335 4.16668M3.3335 16.6667L4.16683 15.8333M3.3335 3.33334L4.16683 4.16668M0.833496 10H1.66683M10.0002 15C11.3262 15 12.598 14.4732 13.5357 13.5355C14.4734 12.5979 15.0002 11.3261 15.0002 10C15.0002 8.67393 14.4734 7.40216 13.5357 6.46448C12.598 5.52679 11.3262 5.00001 10.0002 5.00001C8.67408 5.00001 7.40231 5.52679 6.46463 6.46448C5.52695 7.40216 5.00016 8.67393 5.00016 10C5.00016 11.3261 5.52695 12.5979 6.46463 13.5355C7.40231 14.4732 8.67408 15 10.0002 15Z" stroke="#726C56" stroke-width="1.5" stroke-linecap="round" stroke-linejoin="round"/>
</g>
<defs>
<clipPath id="clip0_654_1115">
<rect width="20" height="20" fill="white"/>
</clipPath>
</defs>
</svg>
