<svg width="18" height="17" viewBox="0 0 18 17" fill="none" xmlns="http://www.w3.org/2000/svg">
<path d="M17 1.96054V2.05759C17 2.53448 16.6134 2.92108 16.1365 2.92108V4.01142V5.6729V7.38629V8.84008V10.5016V11.6452V14.0322C16.6134 14.0322 17 14.4188 17 14.8957V15.0161C17 15.5595 16.5595 16 16.0161 16H1.98391C1.44051 16 1 15.5595 1 15.0161C1 14.4727 1.44051 14.0322 1.98391 14.0322H2.06667V11.6452V10.5016V8.84008V7.38629V5.6729V4.01142V2.92108H1.96054C1.43005 2.92108 1 2.49103 1 1.96054C1 1.43005 1.43005 1 1.96054 1H16.0395C16.57 1 17 1.43005 17 1.96054Z" fill="white"/>
<path d="M2.06667 2.92108H1.96054C1.43005 2.92108 1 2.49103 1 1.96054V1.96054C1 1.43005 1.43005 1 1.96054 1H16.0395C16.57 1 17 1.43005 17 1.96054V2.05759C17 2.53448 16.6134 2.92108 16.1365 2.92108V2.92108M2.06667 2.92108H16.1365M2.06667 2.92108V4.01142V5.6729V7.38629V8.84008V10.5016V11.6452V14.0322M2.06667 14.0322H16.1365M2.06667 14.0322H1.98391C1.44051 14.0322 1 14.4727 1 15.0161V15.0161C1 15.5595 1.44051 16 1.98391 16H16.0161C16.5595 16 17 15.5595 17 15.0161V14.8957C17 14.4188 16.6134 14.0322 16.1365 14.0322V14.0322M16.1365 14.0322V11.6452V10.5016V8.84008V7.38629V5.6729V4.01142V2.92108" stroke="#726C56"/>
</svg>
