<svg width="24" height="24" viewBox="0 0 24 24" fill="none" xmlns="http://www.w3.org/2000/svg">
<g clip-path="url(#clip0_349_1308)">
<path d="M5.1001 4V20.5" stroke="white" stroke-width="1.5" stroke-linecap="round"/>
<path d="M18.2998 4V20.5" stroke="white" stroke-width="1.5" stroke-linecap="round"/>
<path d="M5.9248 7.5H7.20814M8.49147 10H9.7748M9.13314 6.875V8.125M6.56647 9.375V10.625M11.0581 7.5H12.3415M13.6248 10H14.9081M14.2665 6.875V8.125M11.6998 9.375V10.625M16.1915 7.5H17.4748M16.8331 9.375V10.625M5.9248 12.5H7.20814M8.49147 15H9.7748M9.13314 11.875V13.125M6.56647 14.375V15.625M11.0581 12.5H12.3415M13.6248 15H14.9081M14.2665 11.875V13.125M11.6998 14.375V15.625M16.1915 12.5H17.4748M16.8331 14.375V15.625M5.9248 17.5H7.20814M9.13314 16.875V18.125M11.0581 17.5H12.3415M14.2665 16.875V18.125M16.1915 17.5H17.4748" stroke="white" stroke-width="1.2" stroke-linecap="round" stroke-linejoin="round"/>
</g>
<defs>
<clipPath id="clip0_349_1308">
<rect width="24" height="24" fill="white"/>
</clipPath>
</defs>
</svg>
