<svg width="20" height="20" viewBox="0 0 20 20" fill="none" xmlns="http://www.w3.org/2000/svg">
<path d="M9.16593 -0.00335693H10.8359V1.66664H9.16593V-0.00335693ZM3.51927 2.33581L4.7001 3.51664L3.51927 4.69748L2.33843 3.51664L3.51927 2.33581ZM16.4826 2.33581L17.6634 3.51664L16.4826 4.69748L15.3018 3.51664L16.4826 2.33581ZM10.0001 4.99998C8.67402 4.99998 7.40225 5.52676 6.46457 6.46444C5.52689 7.40212 5.0001 8.67389 5.0001 9.99998C5.0001 11.3261 5.52689 12.5978 6.46457 13.5355C7.40225 14.4732 8.67402 15 10.0001 15C11.3262 15 12.598 14.4732 13.5356 13.5355C14.4733 12.5978 15.0001 11.3261 15.0001 9.99998C15.0001 8.67389 14.4733 7.40212 13.5356 6.46444C12.598 5.52676 11.3262 4.99998 10.0001 4.99998ZM3.33343 9.99998C3.33343 8.23187 4.03581 6.53617 5.28606 5.28593C6.5363 4.03569 8.23199 3.33331 10.0001 3.33331C11.7682 3.33331 13.4639 4.03569 14.7141 5.28593C15.9644 6.53617 16.6668 8.23187 16.6668 9.99998C16.6668 11.7681 15.9644 13.4638 14.7141 14.714C13.4639 15.9643 11.7682 16.6666 10.0001 16.6666C8.23199 16.6666 6.5363 15.9643 5.28606 14.714C4.03581 13.4638 3.33343 11.7681 3.33343 9.99998ZM-0.000732422 9.16331H1.66927V10.8333H-0.000732422V9.16331ZM18.3326 9.16331H20.0026V10.8333H18.3326V9.16331ZM3.51927 15.3L4.7001 16.4808L3.51927 17.6625L2.33843 16.4808L3.51927 15.3ZM16.4826 15.3L17.6634 16.4808L16.4826 17.6616L15.3018 16.4808L16.4826 15.3ZM9.16677 18.3308H10.8368V20H9.16677V18.3308Z" fill="white"/>
</svg>
