<svg width="10" height="10" viewBox="0 0 10 10" fill="none" xmlns="http://www.w3.org/2000/svg">
<path fill-rule="evenodd" clip-rule="evenodd" d="M5.33333 1.83333C5.33333 1.74493 5.29821 1.66014 5.2357 1.59763C5.17319 1.53512 5.08841 1.5 5 1.5C4.91159 1.5 4.82681 1.53512 4.7643 1.59763C4.70179 1.66014 4.66667 1.74493 4.66667 1.83333V4.66667H1.83333C1.74493 4.66667 1.66014 4.70179 1.59763 4.7643C1.53512 4.82681 1.5 4.91159 1.5 5C1.5 5.08841 1.53512 5.17319 1.59763 5.2357C1.66014 5.29821 1.74493 5.33333 1.83333 5.33333H4.66667V8.16667C4.66667 8.25507 4.70179 8.33986 4.7643 8.40237C4.82681 8.46488 4.91159 8.5 5 8.5C5.08841 8.5 5.17319 8.46488 5.2357 8.40237C5.29821 8.33986 5.33333 8.25507 5.33333 8.16667V5.33333H8.16667C8.25507 5.33333 8.33986 5.29821 8.40237 5.2357C8.46488 5.17319 8.5 5.08841 8.5 5C8.5 4.91159 8.46488 4.82681 8.40237 4.7643C8.33986 4.70179 8.25507 4.66667 8.16667 4.66667H5.33333V1.83333Z" fill="white"/>
</svg>
