<svg width="24" height="24" viewBox="0 0 24 24" fill="none" xmlns="http://www.w3.org/2000/svg">
<path d="M5.06667 6.92108H4.96054C4.43005 6.92108 4 6.49103 4 5.96054V5.96054C4 5.43005 4.43005 5 4.96054 5H19.0395C19.57 5 20 5.43005 20 5.96054V6.05759C20 6.53448 19.6134 6.92108 19.1365 6.92108V6.92108M5.06667 6.92108H19.1365M5.06667 6.92108V8.01142V9.6729V11.3863V12.8401V14.5016V15.6452V18.0322M5.06667 18.0322H19.1365M5.06667 18.0322H4.98391C4.44051 18.0322 4 18.4727 4 19.0161V19.0161C4 19.5595 4.44051 20 4.98391 20H19.0161C19.5595 20 20 19.5595 20 19.0161V18.8957C20 18.4188 19.6134 18.0322 19.1365 18.0322V18.0322M19.1365 18.0322V15.6452V14.5016V12.8401V11.3863V9.6729V8.01142V6.92108" stroke="white"/>
</svg>
