<svg width="24" height="24" viewBox="0 0 24 24" fill="none" xmlns="http://www.w3.org/2000/svg">
<path d="M5.375 5.16669C5.375 4.6144 5.82272 4.16669 6.375 4.16669H18.625C19.1773 4.16669 19.625 4.6144 19.625 5.16669V6.54169C19.625 6.97891 19.2706 7.33335 18.8333 7.33335V7.33335C18.3961 7.33335 18.0417 7.6878 18.0417 8.12502V16.0417C18.0417 16.4789 17.6872 16.8334 17.25 16.8334V16.8334C16.8128 16.8334 16.4583 16.4789 16.4583 16.0417V8.33335C16.4583 7.78107 16.0106 7.33335 15.4583 7.33335H9.54167C8.98938 7.33335 8.54167 7.78107 8.54167 8.33335V16.0417C8.54167 16.4789 8.18723 16.8334 7.75 16.8334V16.8334C7.31277 16.8334 6.95833 16.4789 6.95833 16.0417V8.12502C6.95833 7.6878 6.60389 7.33335 6.16667 7.33335V7.33335C5.72944 7.33335 5.375 6.97891 5.375 6.54169V5.16669ZM9.33333 8.91669C9.33333 8.47946 9.68777 8.12502 10.125 8.12502H14.875C15.3122 8.12502 15.6667 8.47946 15.6667 8.91669V8.91669C15.6667 9.35391 15.3122 9.70835 14.875 9.70835H10.125C9.68778 9.70835 9.33333 9.35391 9.33333 8.91669V8.91669ZM9.33333 11.2917C9.33333 10.8545 9.68777 10.5 10.125 10.5H14.875C15.3122 10.5 15.6667 10.8545 15.6667 11.2917V11.2917C15.6667 11.7289 15.3122 12.0834 14.875 12.0834H10.125C9.68778 12.0834 9.33333 11.7289 9.33333 11.2917V11.2917ZM9.33333 13.6667C9.33333 13.2295 9.68777 12.875 10.125 12.875H14.875C15.3122 12.875 15.6667 13.2295 15.6667 13.6667V13.6667C15.6667 14.1039 15.3122 14.4584 14.875 14.4584H10.125C9.68778 14.4584 9.33333 14.1039 9.33333 13.6667V13.6667ZM9.33333 16.0417C9.33333 15.6045 9.68778 15.25 10.125 15.25H14.875C15.3122 15.25 15.6667 15.6045 15.6667 16.0417V16.0417C15.6667 16.4789 15.3122 16.8334 14.875 16.8334H10.125C9.68778 16.8334 9.33333 16.4789 9.33333 16.0417V16.0417Z" fill="white"/>
<path d="M7.1154 20.2831C7.07882 20.246 7.0498 20.2019 7.03 20.1533C7.01019 20.1047 7 20.0526 7 20C7 19.9474 7.01019 19.8953 7.03 19.8467C7.0498 19.7981 7.07882 19.754 7.1154 19.7169L8.68663 18.1173C8.72315 18.0801 8.76651 18.0506 8.81423 18.0305C8.86194 18.0104 8.91309 18 8.96474 18C9.01639 18 9.06753 18.0104 9.11525 18.0305C9.16297 18.0506 9.20632 18.0801 9.24284 18.1173C9.27937 18.1545 9.30834 18.1986 9.3281 18.2472C9.34787 18.2958 9.35804 18.3478 9.35804 18.4004C9.35804 18.453 9.34787 18.5051 9.3281 18.5536C9.30834 18.6022 9.27937 18.6464 9.24284 18.6835L8.34175 19.6001H16.6583L15.7572 18.6835C15.6834 18.6084 15.642 18.5066 15.642 18.4004C15.642 18.2942 15.6834 18.1924 15.7572 18.1173C15.8309 18.0422 15.931 18 16.0353 18C16.1396 18 16.2396 18.0422 16.3134 18.1173L17.8846 19.7169C17.9212 19.754 17.9502 19.7981 17.97 19.8467C17.9898 19.8953 18 19.9474 18 20C18 20.0526 17.9898 20.1047 17.97 20.1533C17.9502 20.2019 17.9212 20.246 17.8846 20.2831L16.3134 21.8827C16.2396 21.9578 16.1396 22 16.0353 22C15.931 22 15.8309 21.9578 15.7572 21.8827C15.6834 21.8076 15.642 21.7058 15.642 21.5996C15.642 21.4934 15.6834 21.3916 15.7572 21.3165L16.6583 20.3999H8.34175L9.24284 21.3165C9.3166 21.3916 9.35804 21.4934 9.35804 21.5996C9.35804 21.7058 9.3166 21.8076 9.24284 21.8827C9.16909 21.9578 9.06905 22 8.96474 22C8.86043 22 8.76039 21.9578 8.68663 21.8827L7.1154 20.2831Z" fill="white"/>
</svg>
