<svg width="16" height="19" viewBox="0 0 16 19" fill="none" xmlns="http://www.w3.org/2000/svg">
<path d="M5.19492 18L1.70239 16.9113C1.28458 16.781 1 16.3942 1 15.9566V14.5M5.19492 18L9.58051 16.6923M5.19492 18V15M5.19492 1L1.67271 2.21999C1.27004 2.35946 1 2.73878 1 3.16491V4M5.19492 1L9.58051 2.45299M5.19492 1V3.25M9.58051 2.45299L13.741 1.33753C14.3762 1.16724 15 1.64583 15 2.30342V3M9.58051 2.45299V4.2265M9.58051 16.6923L13.7654 17.7021C14.3946 17.8539 15 17.3772 15 16.73V14.75M9.58051 16.6923V15M1 4L5 3M1 4V6.5M1 6.5L5.19492 5.5M1 6.5V9.5M5.19492 5.5V8.71875M5.19492 5.5V3.25M5.19492 5.5L9.58051 6M1 9.5L5.19492 8.71875M1 9.5V12M5.19492 8.71875V8.84375M1 12H5M1 12V14.5M1 14.5L5.19492 15M5.19492 15V11.9219M5.19492 15H9.58051M5.19492 3.25L9.5 4M9.58051 6V8.71875M9.58051 6V4.2265M9.58051 6L15 5M5.19492 8.84375L9.58051 8.71875M5.19492 8.84375V11.9219M9.58051 8.71875L15 8M9.58051 8.71875V11.9219M5.19492 11.9219L9.58051 12M9.58051 12V15M9.58051 12V11.9219M9.58051 15L15 14.75M9.58051 4.2265L15 3M15 3V5M15 5V8M15 8V11.5M9.58051 11.9219L15 11.5M15 11.5V14.75" stroke="#726C56"/>
</svg>
