<svg width="20" height="20" viewBox="0 0 20 20" fill="none" xmlns="http://www.w3.org/2000/svg">
<path d="M18.0513 10.5875C17.8659 9.89356 17.5181 9.25364 17.0367 8.72054C16.5552 8.18745 15.954 7.77644 15.2825 7.52141C14.611 7.26639 13.8885 7.17467 13.1745 7.25381C12.4606 7.33294 11.7757 7.58068 11.1763 7.97657C11.1224 7.94454 11.0662 7.91407 11.0092 7.88672L12.3263 2.62735C12.3502 2.53215 12.3436 2.43185 12.3075 2.3406C12.2713 2.24935 12.2074 2.17175 12.1248 2.11876C11.6066 1.78816 11.0265 1.56645 10.4199 1.46712C9.81332 1.36779 9.19285 1.39291 8.59626 1.54097C7.99968 1.68903 7.43945 1.95692 6.94968 2.32834C6.45991 2.69976 6.05082 3.16695 5.74732 3.70147C5.44381 4.236 5.25224 4.82669 5.18425 5.4376C5.11625 6.04851 5.17327 6.66687 5.35182 7.25504C5.53037 7.84322 5.82673 8.38892 6.22285 8.85894C6.61898 9.32896 7.1066 9.71347 7.65603 9.98907V10C7.65603 10.0602 7.65603 10.1203 7.66384 10.1797L2.45056 11.6688C2.35584 11.6954 2.2719 11.7511 2.21062 11.8281C2.14935 11.9051 2.11385 11.9994 2.10915 12.0977C2.08617 12.7094 2.18737 13.3195 2.40667 13.891C2.62596 14.4626 2.95879 14.9837 3.38508 15.4231C3.81136 15.8625 4.32225 16.2109 4.88691 16.4474C5.45157 16.6838 6.05829 16.8034 6.67044 16.7989C7.2826 16.7945 7.8875 16.666 8.44863 16.4212C9.00976 16.1765 9.51548 15.8206 9.93528 15.3751C10.3551 14.9295 10.6802 14.4035 10.8911 13.8288C11.102 13.2541 11.1942 12.6426 11.1623 12.0313C11.217 12 11.2709 11.9664 11.3232 11.9305L15.2193 15.7031C15.2901 15.7714 15.3805 15.8156 15.4778 15.8296C15.5751 15.8437 15.6743 15.8267 15.7615 15.7813C16.6781 15.3057 17.4048 14.5313 17.8213 13.5864C18.2377 12.6414 18.3189 11.5826 18.0513 10.5852V10.5875ZM8.59353 10C8.59353 9.72188 8.676 9.44999 8.83052 9.21873C8.98504 8.98748 9.20467 8.80724 9.46163 8.7008C9.71859 8.59436 10.0013 8.56652 10.2741 8.62078C10.5469 8.67504 10.7975 8.80897 10.9941 9.00564C11.1908 9.2023 11.3247 9.45287 11.379 9.72566C11.4333 9.99845 11.4054 10.2812 11.299 10.5382C11.1925 10.7951 11.0123 11.0147 10.781 11.1693C10.5498 11.3238 10.2779 11.4063 9.99978 11.4063C9.62682 11.4063 9.26913 11.2581 9.00541 10.9944C8.74169 10.7307 8.59353 10.373 8.59353 10ZM6.09353 5.93751C6.09334 5.32106 6.25171 4.71493 6.55344 4.17737C6.85517 3.63982 7.2901 3.18891 7.81643 2.868C8.34275 2.54709 8.94278 2.36696 9.55883 2.34493C10.1749 2.3229 10.7862 2.4597 11.3342 2.74219L10.1029 7.65626H9.99978C9.54888 7.65647 9.10761 7.78675 8.72889 8.03147C8.35018 8.27619 8.05009 8.62495 7.86462 9.03594C7.32428 8.71942 6.87638 8.26674 6.56561 7.72306C6.25485 7.17939 6.09207 6.56373 6.09353 5.93751ZM8.43728 15.4141C7.90345 15.7232 7.29904 15.8897 6.68222 15.8976C6.0654 15.9054 5.45694 15.7544 4.91541 15.459C4.37387 15.1636 3.9175 14.7337 3.5902 14.2108C3.26291 13.688 3.07572 13.0896 3.04665 12.4734L7.92087 11.0813C8.11872 11.4618 8.41718 11.7807 8.78374 12.0033C9.1503 12.2259 9.57092 12.3437 9.99978 12.3438C10.0781 12.3439 10.1563 12.34 10.2342 12.332C10.23 12.958 10.062 13.5719 9.74671 14.1127C9.43144 14.6534 8.97997 15.1021 8.43728 15.4141ZM16.7888 13.5578C16.5019 14.0545 16.1001 14.4751 15.617 14.7844L11.974 11.2594C12.2266 10.8648 12.3548 10.4033 12.3418 9.93492C12.3289 9.46654 12.1754 9.01287 11.9013 8.63282C12.5873 8.24436 13.382 8.09224 14.1629 8.19989C14.9439 8.30754 15.6678 8.66899 16.2231 9.22855C16.7784 9.78811 17.1343 10.5147 17.2359 11.2965C17.3376 12.0782 17.1794 12.8717 16.7857 13.5547L16.7888 13.5578Z" fill="#726C56"/>
</svg>
