<svg width="12" height="11" viewBox="0 0 12 11" fill="none" xmlns="http://www.w3.org/2000/svg">
<path d="M1.25 1.5C1.25 1.22386 1.47386 1 1.75 1H11C11.2761 1 11.5 1.22386 11.5 1.5V2.3125C11.5 2.38154 11.444 2.4375 11.375 2.4375C10.7537 2.4375 10.25 2.94118 10.25 3.5625V9.625C10.25 9.69404 10.194 9.75 10.125 9.75C10.056 9.75 10 9.69404 10 9.625V3.9375C10 3.10907 9.32843 2.4375 8.5 2.4375H4.25C3.42157 2.4375 2.75 3.10907 2.75 3.9375V9.625C2.75 9.69404 2.69404 9.75 2.625 9.75C2.55596 9.75 2.5 9.69404 2.5 9.625V3.5625C2.5 2.94118 1.99632 2.4375 1.375 2.4375C1.30596 2.4375 1.25 2.38154 1.25 2.3125V1.5ZM4.375 4.15625C4.375 4.09584 4.42397 4.04687 4.48438 4.04687H8.26563C8.32603 4.04687 8.375 4.09584 8.375 4.15625C8.375 4.21666 8.32603 4.26562 8.26563 4.26562H4.48438C4.42397 4.26562 4.375 4.21666 4.375 4.15625ZM4.375 5.98438C4.375 5.92397 4.42397 5.875 4.48438 5.875H8.26563C8.32603 5.875 8.375 5.92397 8.375 5.98438C8.375 6.04478 8.32603 6.09375 8.26563 6.09375H4.48438C4.42397 6.09375 4.375 6.04478 4.375 5.98438ZM4.375 7.8125C4.375 7.75209 4.42397 7.70312 4.48438 7.70312H8.26563C8.32603 7.70312 8.375 7.75209 8.375 7.8125C8.375 7.87291 8.32603 7.92187 8.26563 7.92187H4.48438C4.42397 7.92187 4.375 7.87291 4.375 7.8125ZM4.375 9.64062C4.375 9.58022 4.42397 9.53125 4.48438 9.53125H8.26563C8.32603 9.53125 8.375 9.58022 8.375 9.64062C8.375 9.70103 8.32603 9.75 8.26563 9.75H4.48438C4.42397 9.75 4.375 9.70103 4.375 9.64062Z" fill="#726C56" stroke="#726C56"/>
</svg>
