<svg width="16" height="16" viewBox="0 0 16 16" fill="none" xmlns="http://www.w3.org/2000/svg">
<g clip-path="url(#clip0_160_3727)">
<g clip-path="url(#clip1_160_3727)">
<path d="M4.62533 0.49999L3.44199 2.32499L4.62533 4.16666H4.61699L2.95866 6.74999L1.51699 5.99999L2.70033 4.15832L1.51699 2.32499L3.18366 -0.258344L4.62533 0.49999ZM9.62533 0.408323L8.44199 2.24999L9.62533 4.08332L9.61699 4.09166L7.95866 6.66666L6.51699 5.91666L7.70033 4.08332L6.51699 2.24999L8.18366 -0.333344L9.62533 0.408323ZM14.667 0.408323L13.467 2.24999L14.667 4.08332V4.09166L13.0003 6.66666L11.542 5.91666L12.7253 4.08332L11.542 2.24999L13.2087 -0.333344L14.667 0.408323ZM-0.333008 16.3333V9.66666C-0.333008 9.22463 -0.157413 8.80071 0.155147 8.48814C0.467708 8.17558 0.891631 7.99999 1.33366 7.99999H14.667C15.109 7.99999 15.5329 8.17558 15.8455 8.48814C16.1581 8.80071 16.3337 9.22463 16.3337 9.66666V16.3333H14.667V14.6667H1.33366V16.3333H-0.333008ZM3.00033 9.66666C2.77931 9.66666 2.56735 9.75445 2.41107 9.91073C2.25479 10.067 2.16699 10.279 2.16699 10.5V12.1667C2.16699 12.3877 2.25479 12.5996 2.41107 12.7559C2.56735 12.9122 2.77931 13 3.00033 13C3.22134 13 3.4333 12.9122 3.58958 12.7559C3.74586 12.5996 3.83366 12.3877 3.83366 12.1667V10.5C3.83366 10.279 3.74586 10.067 3.58958 9.91073C3.4333 9.75445 3.22134 9.66666 3.00033 9.66666ZM6.33366 9.66666C6.11265 9.66666 5.90068 9.75445 5.7444 9.91073C5.58812 10.067 5.50033 10.279 5.50033 10.5V12.1667C5.50033 12.3877 5.58812 12.5996 5.7444 12.7559C5.90068 12.9122 6.11265 13 6.33366 13C6.55467 13 6.76663 12.9122 6.92291 12.7559C7.07919 12.5996 7.16699 12.3877 7.16699 12.1667V10.5C7.16699 10.279 7.07919 10.067 6.92291 9.91073C6.76663 9.75445 6.55467 9.66666 6.33366 9.66666ZM9.66699 9.66666C9.44598 9.66666 9.23402 9.75445 9.07774 9.91073C8.92146 10.067 8.83366 10.279 8.83366 10.5V12.1667C8.83366 12.3877 8.92146 12.5996 9.07774 12.7559C9.23402 12.9122 9.44598 13 9.66699 13C9.88801 13 10.1 12.9122 10.2562 12.7559C10.4125 12.5996 10.5003 12.3877 10.5003 12.1667V10.5C10.5003 10.279 10.4125 10.067 10.2562 9.91073C10.1 9.75445 9.88801 9.66666 9.66699 9.66666ZM13.0003 9.66666C12.7793 9.66666 12.5673 9.75445 12.4111 9.91073C12.2548 10.067 12.167 10.279 12.167 10.5V12.1667C12.167 12.3877 12.2548 12.5996 12.4111 12.7559C12.5673 12.9122 12.7793 13 13.0003 13C13.2213 13 13.4333 12.9122 13.5896 12.7559C13.7459 12.5996 13.8337 12.3877 13.8337 12.1667V10.5C13.8337 10.279 13.7459 10.067 13.5896 9.91073C13.4333 9.75445 13.2213 9.66666 13.0003 9.66666Z" fill="#997A4F"/>
</g>
</g>
<defs>
<clipPath id="clip0_160_3727">
<rect width="16" height="16" fill="white"/>
</clipPath>
<clipPath id="clip1_160_3727">
<rect width="20" height="20" fill="white" transform="translate(-2 -2)"/>
</clipPath>
</defs>
</svg>
