<svg width="18" height="18" viewBox="0 0 18 18" fill="none" xmlns="http://www.w3.org/2000/svg">
<path d="M9 16.875C13.3492 16.875 16.875 13.3492 16.875 9C16.875 4.65076 13.3492 1.125 9 1.125C4.65076 1.125 1.125 4.65076 1.125 9C1.125 13.3492 4.65076 16.875 9 16.875Z" fill="black"/>
<path fill-rule="evenodd" clip-rule="evenodd" d="M9.33333 5.83333C9.33333 5.74493 9.29821 5.66014 9.2357 5.59763C9.17319 5.53512 9.08841 5.5 9 5.5C8.91159 5.5 8.82681 5.53512 8.7643 5.59763C8.70179 5.66014 8.66667 5.74493 8.66667 5.83333V8.66667H5.83333C5.74493 8.66667 5.66014 8.70179 5.59763 8.7643C5.53512 8.82681 5.5 8.91159 5.5 9C5.5 9.08841 5.53512 9.17319 5.59763 9.2357C5.66014 9.29821 5.74493 9.33333 5.83333 9.33333H8.66667V12.1667C8.66667 12.2551 8.70179 12.3399 8.7643 12.4024C8.82681 12.4649 8.91159 12.5 9 12.5C9.08841 12.5 9.17319 12.4649 9.2357 12.4024C9.29821 12.3399 9.33333 12.2551 9.33333 12.1667V9.33333H12.1667C12.2551 9.33333 12.3399 9.29821 12.4024 9.2357C12.4649 9.17319 12.5 9.08841 12.5 9C12.5 8.91159 12.4649 8.82681 12.4024 8.7643C12.3399 8.70179 12.2551 8.66667 12.1667 8.66667H9.33333V5.83333Z" fill="white"/>
</svg>
