<svg width="20" height="20" viewBox="0 0 20 20" fill="none" xmlns="http://www.w3.org/2000/svg">
<path d="M6.66667 8.33333L10 10M6.66667 8.33333V11.6667L10 13.3333M6.66667 8.33333L10 6.66667L13.3333 8.33333M10 10L13.3333 8.33333M10 10V13.3333M10 13.3333L13.3333 11.6667V8.33333M7.83333 17.5C5.96667 17.5 5.03333 17.5 4.32 17.1367C3.69282 16.8171 3.18291 16.3072 2.86333 15.68C2.5 14.9667 2.5 14.0333 2.5 12.1667M17.5 12.1667C17.5 14.0333 17.5 14.9667 17.1367 15.68C16.8171 16.3072 16.3072 16.8171 15.68 17.1367C14.9667 17.5 14.0333 17.5 12.1667 17.5M12.1667 2.5C14.0333 2.5 14.9667 2.5 15.68 2.86333C16.3072 3.18291 16.8171 3.69282 17.1367 4.32C17.5 5.03333 17.5 5.96667 17.5 7.83333M7.83333 2.5C5.96667 2.5 5.03333 2.5 4.32 2.86333C3.69282 3.18291 3.18291 3.69282 2.86333 4.32C2.5 5.03333 2.5 5.96667 2.5 7.83333" stroke="black" stroke-width="1.5" stroke-linecap="round" stroke-linejoin="round"/>
</svg>
