<svg width="16" height="16" viewBox="0 0 16 16" fill="none" xmlns="http://www.w3.org/2000/svg">
<path d="M9.52201 2.33388L4.34001 7.64988C4.249 7.74325 4.19806 7.86849 4.19806 7.99888C4.19806 8.12927 4.249 8.2545 4.34001 8.34788L9.52201 13.6659C9.56441 13.7094 9.6151 13.744 9.67109 13.7677C9.72708 13.7913 9.78724 13.8035 9.84801 13.8035C9.90878 13.8035 9.96894 13.7913 10.0249 13.7677C10.0809 13.744 10.1316 13.7094 10.174 13.6659C10.2612 13.5766 10.3101 13.4567 10.3101 13.3319C10.3101 13.207 10.2612 13.0872 10.174 12.9979L5.30101 7.99888L10.174 3.00088C10.2609 2.91163 10.3096 2.79197 10.3096 2.66738C10.3096 2.54279 10.2609 2.42313 10.174 2.33388C10.1316 2.29034 10.0809 2.25573 10.0249 2.2321C9.96894 2.20846 9.90878 2.19629 9.84801 2.19629C9.78724 2.19629 9.72708 2.20846 9.67109 2.2321C9.6151 2.25573 9.56441 2.29034 9.52201 2.33388Z" fill="#726C56"/>
</svg>
