<svg width="20" height="14" viewBox="0 0 20 14" fill="none" xmlns="http://www.w3.org/2000/svg">
<path fill-rule="evenodd" clip-rule="evenodd" d="M0 0.648063C0.0648432 0.665447 0.280076 0.860569 0.346091 0.922094C0.530074 1.09358 0.479098 1.08362 0.479098 1.40902C0.545503 1.44418 0.930071 1.72036 0.930071 1.80356V13.865H2.22615V3.15633C2.51385 3.34891 4.04176 4.59777 4.45621 4.92786L5.11422 5.45326C5.16285 5.49662 5.18512 5.4685 5.18512 5.5517V13.865H5.77691V5.60795H13.9208V13.865H14.5126V5.5517C14.5126 5.46576 14.5288 5.50522 14.568 5.46615L15.978 4.33976C16.1005 4.24425 16.2114 4.14971 16.3405 4.0542C16.4212 3.99444 16.4473 3.96143 16.5251 3.90049L17.093 3.45399C17.2239 3.35126 17.3417 3.24305 17.4715 3.15633V13.865H18.7678V1.74711C18.8612 1.72231 19.0698 1.50863 19.2186 1.40902C19.2186 0.95393 19.1541 1.11819 19.5356 0.767793C19.7436 0.576577 19.6977 0.789668 19.6977 0H0V0.648063Z" fill="#0B70A2"/>
</svg>
