<svg width="20" height="20" viewBox="0 0 20 20" fill="none" xmlns="http://www.w3.org/2000/svg">
<path d="M3.33317 15.8333V4.16667C3.33317 3.70833 3.49651 3.31611 3.82317 2.99C4.14984 2.66389 4.54206 2.50056 4.99984 2.5H14.9998C15.4582 2.5 15.8507 2.66333 16.1773 2.99C16.504 3.31667 16.6671 3.70889 16.6665 4.16667V15.8333H17.4998C17.736 15.8333 17.934 15.9133 18.094 16.0733C18.254 16.2333 18.3337 16.4311 18.3332 16.6667C18.3326 16.9022 18.2526 17.1003 18.0932 17.2608C17.9337 17.4214 17.736 17.5011 17.4998 17.5H2.49984C2.26373 17.5 2.06595 17.42 1.90651 17.26C1.74706 17.1 1.66706 16.9022 1.66651 16.6667C1.66595 16.4311 1.74595 16.2333 1.90651 16.0733C2.06706 15.9133 2.26484 15.8333 2.49984 15.8333H3.33317ZM4.99984 15.8333H14.9998V10.8333H10.8332V12.3333C11.0276 12.4722 11.1804 12.6458 11.2915 12.8542C11.4026 13.0625 11.4582 13.2917 11.4582 13.5417C11.4582 13.9444 11.3157 14.2883 11.0307 14.5733C10.7457 14.8583 10.4021 15.0006 9.99984 15C9.59762 14.9994 9.25401 14.8569 8.96901 14.5725C8.68401 14.2881 8.54151 13.9444 8.54151 13.5417C8.54151 13.2917 8.59706 13.0661 8.70817 12.865C8.81928 12.6639 8.97206 12.4936 9.16651 12.3542V10.8333H4.99984V15.8333Z" fill="white"/>
</svg>
