<svg width="16" height="16" viewBox="0 0 16 16" fill="none" xmlns="http://www.w3.org/2000/svg">
<path d="M5.73 8.77C5.524 8.77 5.34433 8.69333 5.191 8.54C5.03767 8.38667 4.961 8.20667 4.961 8C4.961 7.79333 5.03767 7.61333 5.191 7.46C5.34433 7.30667 5.52433 7.23 5.731 7.23C5.93767 7.23 6.11767 7.30667 6.271 7.46C6.42433 7.61333 6.50067 7.79333 6.5 8C6.49933 8.20667 6.42267 8.38667 6.27 8.54C6.11733 8.69333 5.93733 8.77 5.73 8.77ZM10.27 8.77C10.0633 8.77 9.88333 8.69333 9.73 8.54C9.57667 8.38667 9.5 8.20667 9.5 8C9.5 7.79333 9.57667 7.61333 9.73 7.46C9.88333 7.30667 10.0633 7.23 10.27 7.23C10.4767 7.23 10.6563 7.30667 10.809 7.46C10.9617 7.61333 11.0383 7.79333 11.039 8C11.0397 8.20667 10.963 8.38667 10.809 8.54C10.655 8.69333 10.475 8.77 10.269 8.77M0.5 16V15H1.5V1.616C1.5 1.15533 1.65433 0.771 1.963 0.463C2.27167 0.155 2.656 0.000666667 3.116 0H12.885C13.345 0 13.7293 0.154333 14.038 0.463C14.3467 0.771667 14.5007 1.156 14.5 1.616V15H15.5V16H0.5ZM2.5 15H7.5V1H3.116C2.962 1 2.82067 1.064 2.692 1.192C2.56333 1.32 2.49933 1.46133 2.5 1.616V15ZM8.5 15H13.5V1.616C13.5 1.462 13.436 1.32067 13.308 1.192C13.18 1.06333 13.0387 0.999333 12.884 1H8.5V15Z" fill="#726C56"/>
</svg>
