<svg width="19" height="19" viewBox="0 0 19 19" fill="none" xmlns="http://www.w3.org/2000/svg">
<path d="M2.375 2.16667C2.375 1.61439 2.82272 1.16667 3.375 1.16667H15.625C16.1773 1.16667 16.625 1.61439 16.625 2.16667V3.54167C16.625 3.9789 16.2706 4.33334 15.8333 4.33334C15.3961 4.33334 15.0417 4.68778 15.0417 5.12501V13.0417C15.0417 13.4789 14.6872 13.8333 14.25 13.8333C13.8128 13.8333 13.4583 13.4789 13.4583 13.0417V5.33334C13.4583 4.78105 13.0106 4.33334 12.4583 4.33334H6.54167C5.98938 4.33334 5.54167 4.78105 5.54167 5.33334V13.0417C5.54167 13.4789 5.18723 13.8333 4.75 13.8333C4.31277 13.8333 3.95833 13.4789 3.95833 13.0417V5.12501C3.95833 4.68778 3.60389 4.33334 3.16667 4.33334C2.72944 4.33334 2.375 3.9789 2.375 3.54167V2.16667ZM6.33333 5.91667C6.33333 5.47945 6.68777 5.12501 7.125 5.12501H11.875C12.3122 5.12501 12.6667 5.47945 12.6667 5.91667C12.6667 6.3539 12.3122 6.70834 11.875 6.70834H7.125C6.68778 6.70834 6.33333 6.3539 6.33333 5.91667ZM6.33333 8.29167C6.33333 7.85445 6.68777 7.50001 7.125 7.50001H11.875C12.3122 7.50001 12.6667 7.85445 12.6667 8.29167C12.6667 8.7289 12.3122 9.08334 11.875 9.08334H7.125C6.68778 9.08334 6.33333 8.7289 6.33333 8.29167ZM6.33333 10.6667C6.33333 10.2294 6.68777 9.87501 7.125 9.87501H11.875C12.3122 9.87501 12.6667 10.2294 12.6667 10.6667C12.6667 11.1039 12.3122 11.4583 11.875 11.4583H7.125C6.68778 11.4583 6.33333 11.1039 6.33333 10.6667ZM6.33333 13.0417C6.33333 12.6044 6.68778 12.25 7.125 12.25H11.875C12.3122 12.25 12.6667 12.6044 12.6667 13.0417C12.6667 13.4789 12.3122 13.8333 11.875 13.8333H7.125C6.68778 13.8333 6.33333 13.4789 6.33333 13.0417Z" fill="#726C56"/>
<path d="M4.1154 17.2831C4.07882 17.246 4.0498 17.2019 4.03 17.1533C4.01019 17.1047 4 17.0526 4 17C4 16.9474 4.01019 16.8953 4.03 16.8467C4.0498 16.7981 4.07882 16.754 4.1154 16.7169L5.68663 15.1173C5.72315 15.0801 5.76651 15.0506 5.81423 15.0305C5.86194 15.0104 5.91309 15 5.96474 15C6.01639 15 6.06753 15.0104 6.11525 15.0305C6.16297 15.0506 6.20632 15.0801 6.24284 15.1173C6.27937 15.1545 6.30834 15.1986 6.3281 15.2472C6.34787 15.2958 6.35804 15.3478 6.35804 15.4004C6.35804 15.453 6.34787 15.5051 6.3281 15.5536C6.30834 15.6022 6.27937 15.6464 6.24284 15.6835L5.34175 16.6001H13.6583L12.7572 15.6835C12.6834 15.6084 12.642 15.5066 12.642 15.4004C12.642 15.2942 12.6834 15.1924 12.7572 15.1173C12.8309 15.0422 12.931 15 13.0353 15C13.1396 15 13.2396 15.0422 13.3134 15.1173L14.8846 16.7169C14.9212 16.754 14.9502 16.7981 14.97 16.8467C14.9898 16.8953 15 16.9474 15 17C15 17.0526 14.9898 17.1047 14.97 17.1533C14.9502 17.2019 14.9212 17.246 14.8846 17.2831L13.3134 18.8827C13.2396 18.9578 13.1396 19 13.0353 19C12.931 19 12.8309 18.9578 12.7572 18.8827C12.6834 18.8076 12.642 18.7058 12.642 18.5996C12.642 18.4934 12.6834 18.3916 12.7572 18.3165L13.6583 17.3999H5.34175L6.24284 18.3165C6.3166 18.3916 6.35804 18.4934 6.35804 18.5996C6.35804 18.7058 6.3166 18.8076 6.24284 18.8827C6.16909 18.9578 6.06905 19 5.96474 19C5.86043 19 5.76039 18.9578 5.68663 18.8827L4.1154 17.2831Z" fill="#726C56"/>
</svg>
