<svg width="24" height="24" viewBox="0 0 24 24" fill="none" xmlns="http://www.w3.org/2000/svg">
<path d="M9.19492 21L5.70239 19.9113C5.28458 19.781 5 19.3942 5 18.9566V17.5M9.19492 21L13.5805 19.6923M9.19492 21V18M9.19492 4L5.67271 5.21999C5.27004 5.35946 5 5.73878 5 6.16491V7M9.19492 4L13.5805 5.45299M9.19492 4V6.25M13.5805 5.45299L17.741 4.33753C18.3762 4.16724 19 4.64583 19 5.30342V6M13.5805 5.45299V7.2265M13.5805 19.6923L17.7654 20.7021C18.3946 20.8539 19 20.3772 19 19.73V17.75M13.5805 19.6923V18M5 7L9 6M5 7V9.5M5 9.5L9.19492 8.5M5 9.5V12.5M9.19492 8.5V11.7188M9.19492 8.5V6.25M9.19492 8.5L13.5805 9M5 12.5L9.19492 11.7188M5 12.5V15M9.19492 11.7188V11.8438M5 15H9M5 15V17.5M5 17.5L9.19492 18M9.19492 18V14.9219M9.19492 18H13.5805M9.19492 6.25L13.5 7M13.5805 9V11.7188M13.5805 9V7.2265M13.5805 9L19 8M9.19492 11.8438L13.5805 11.7188M9.19492 11.8438V14.9219M13.5805 11.7188L19 11M13.5805 11.7188V14.9219M9.19492 14.9219L13.5805 15M13.5805 15V18M13.5805 15V14.9219M13.5805 18L19 17.75M13.5805 7.2265L19 6M19 6V8M19 8V11M19 11V14.5M13.5805 14.9219L19 14.5M19 14.5V17.75" stroke="white"/>
</svg>
