<svg width="24" height="24" viewBox="0 0 24 24" fill="none" xmlns="http://www.w3.org/2000/svg">
<path d="M15.75 5.50337C17.9918 6.80014 19.5 9.22395 19.5 12M15.75 5.50337V8.25M15.75 5.50337H18.4967M18.4967 15.75C17.1999 17.9918 14.7761 19.5 12 19.5M18.4967 15.75H15.75M18.4967 15.75V18.4967M8.25 18.4967C6.00825 17.1999 4.5 14.7761 4.5 12M8.25 18.4967V15.75M8.25 18.4967H5.50337M5.50337 8.25C6.80014 6.00825 9.22395 4.5 12 4.5M5.50337 8.25H8.25M5.50337 8.25V5.50337" stroke="white" stroke-linecap="round" stroke-linejoin="round"/>
<path d="M18.4967 15.75C17.1999 17.9918 14.7761 19.5 12 19.5M18.4967 15.75H15.75M18.4967 15.75V18.4967" stroke="white" stroke-linecap="round" stroke-linejoin="round"/>
<path d="M8.25 18.4967C6.00825 17.1999 4.5 14.7761 4.5 12M8.25 18.4967V15.75M8.25 18.4967H5.50337" stroke="white" stroke-linecap="round" stroke-linejoin="round"/>
<path d="M5.50342 8.25C6.80021 6.00825 9.22399 4.5 12 4.5M5.50342 8.25H8.25004M5.50342 8.25V5.50337" stroke="white" stroke-linecap="round" stroke-linejoin="round"/>
<path d="M15.75 5.50342C17.9918 6.80021 19.5 9.22399 19.5 12M15.75 5.50342V8.25004M15.75 5.50342H18.4967" stroke="white" stroke-linecap="round" stroke-linejoin="round"/>
</svg>
