<svg width="24" height="24" viewBox="0 0 24 24" fill="none" xmlns="http://www.w3.org/2000/svg">
<path fill-rule="evenodd" clip-rule="evenodd" d="M11.875 4.2495C10.736 4.24972 9.62393 4.5957 8.68584 5.24168C7.74776 5.88766 7.02788 6.80321 6.62142 7.8672C6.21497 8.9312 6.1411 10.0935 6.40958 11.2004C6.67806 12.3073 7.27625 13.3066 8.125 14.0662L8.1275 14.0695C8.59167 14.4853 8.94417 14.8003 9.19584 15.032C9.43334 15.2487 9.62084 15.427 9.72 15.5487L9.73 15.5612C9.915 15.7887 10.075 15.987 10.1817 16.2245C10.2875 16.4612 10.3275 16.7137 10.3742 17.0028L10.3767 17.0195C10.4008 17.1678 10.41 17.3495 10.4142 17.5828H13.3358C13.34 17.3495 13.3492 17.1678 13.3733 17.0195L13.3758 17.0028C13.4225 16.7137 13.4625 16.4612 13.5683 16.2245C13.675 15.987 13.835 15.7887 14.02 15.5612L14.03 15.5487C14.1292 15.427 14.3167 15.2487 14.5542 15.032C14.8058 14.8003 15.1583 14.4853 15.6225 14.0695L15.6258 14.0662C16.4746 13.3066 17.0729 12.3072 17.3413 11.2002C17.6098 10.0932 17.5358 8.93085 17.1293 7.86681C16.7227 6.80278 16.0027 5.88724 15.0645 5.24133C14.1263 4.59541 13.0141 4.24955 11.875 4.2495ZM13.3283 18.8328H10.4217C10.425 18.9189 10.4294 18.9959 10.435 19.0637C10.4517 19.2512 10.4808 19.3195 10.5008 19.3537C10.5556 19.4485 10.6344 19.5272 10.7292 19.582C10.7625 19.602 10.8317 19.6303 11.0192 19.6478C11.215 19.6653 11.4742 19.6662 11.875 19.6662C12.2758 19.6662 12.535 19.6662 12.7308 19.6478C12.9183 19.6312 12.9867 19.602 13.0208 19.582C13.1156 19.5272 13.1944 19.4485 13.2492 19.3537C13.2692 19.3203 13.2983 19.2512 13.315 19.0637C13.3206 18.9959 13.325 18.9189 13.3283 18.8328ZM5 9.8745C5.00009 8.72782 5.28698 7.59938 5.83457 6.5919C6.38216 5.58441 7.17305 4.7299 8.13523 4.10614C9.09742 3.48239 10.2003 3.10921 11.3436 3.02057C12.4868 2.93194 13.6341 3.13066 14.6809 3.59866C15.7277 4.06666 16.6409 4.78906 17.3372 5.7001C18.0336 6.61114 18.491 7.68188 18.6678 8.81485C18.8446 9.94781 18.7352 11.107 18.3496 12.1869C17.964 13.2668 17.3144 14.2331 16.46 14.9978C16.1045 15.3144 15.7506 15.6327 15.3983 15.9528C15.2739 16.0672 15.1517 16.1839 15.0317 16.3028L15.0017 16.3353C14.785 16.6028 14.7375 16.672 14.71 16.7345C14.6817 16.797 14.6617 16.8778 14.6075 17.2178C14.5858 17.352 14.5833 17.582 14.5833 18.2078V18.2345C14.5833 18.6012 14.5833 18.9178 14.56 19.1762C14.535 19.4512 14.48 19.7228 14.3325 19.9787C14.1679 20.2639 13.9311 20.5007 13.6458 20.6653C13.39 20.8128 13.1183 20.8678 12.8442 20.8928C12.5842 20.9162 12.2683 20.9162 11.9025 20.9162H11.8483C11.4817 20.9162 11.165 20.9162 10.9067 20.8928C10.6317 20.8678 10.36 20.8128 10.1042 20.6653C9.81895 20.5007 9.58212 20.2639 9.4175 19.9787C9.27 19.7228 9.215 19.4512 9.19 19.177C9.16667 18.917 9.16667 18.6012 9.16667 18.2353V18.2078C9.16667 17.5828 9.16417 17.352 9.1425 17.2178C9.08834 16.8778 9.0675 16.797 9.04 16.7345C9.0125 16.672 8.96501 16.6028 8.74834 16.3345L8.74 16.3262L8.71834 16.302L8.6375 16.2212C8.54347 16.1304 8.44818 16.041 8.35167 15.9528C8.10584 15.7278 7.75834 15.417 7.29 14.9978C6.56863 14.3536 5.99167 13.5641 5.597 12.6811C5.20233 11.7981 4.99888 10.8417 5 9.8745Z" fill="white"/>
<path fill-rule="evenodd" clip-rule="evenodd" d="M12.8931 8.53284C13.0279 8.62923 13.1189 8.7752 13.1461 8.93866C13.1732 9.10211 13.1344 9.26967 13.0381 9.40451L11.9581 10.9162H13.2439C13.3588 10.9162 13.4714 10.9479 13.5694 11.0077C13.6674 11.0675 13.747 11.1532 13.7995 11.2553C13.852 11.3574 13.8754 11.472 13.8671 11.5865C13.8587 11.7011 13.819 11.8111 13.7523 11.9045L11.9664 14.4045C11.9196 14.4734 11.8594 14.5322 11.7895 14.5775C11.7196 14.6228 11.6414 14.6537 11.5594 14.6683C11.4774 14.6829 11.3933 14.681 11.312 14.6627C11.2308 14.6443 11.154 14.6099 11.0862 14.5615C11.0185 14.513 10.961 14.4515 10.9174 14.3806C10.8737 14.3097 10.8447 14.2307 10.832 14.1484C10.8193 14.0661 10.8231 13.982 10.8434 13.9012C10.8636 13.8204 10.8998 13.7445 10.9498 13.6778L12.0289 12.1662H10.7439C10.6291 12.1661 10.5165 12.1345 10.4185 12.0746C10.3205 12.0148 10.2409 11.9291 10.1883 11.827C10.1358 11.7249 10.1125 11.6103 10.1208 11.4958C10.1291 11.3813 10.1688 11.2713 10.2356 11.1778L12.0206 8.67784C12.0683 8.61099 12.1288 8.5542 12.1985 8.51072C12.2682 8.46725 12.3458 8.43794 12.4268 8.42447C12.5078 8.411 12.5907 8.41364 12.6707 8.43224C12.7507 8.45083 12.8263 8.48502 12.8931 8.53284Z" fill="white"/>
</svg>
