<svg width="17" height="17" viewBox="0 0 17 17" fill="none" xmlns="http://www.w3.org/2000/svg">
<path d="M5.65898 15.2837L7.38467 13.5156C6.78173 13.3845 6.20738 13.1458 5.68918 12.8109L5.65898 15.2837ZM11.2975 1.67123L9.57229 3.43906C10.1752 3.57024 10.7496 3.80907 11.2678 4.14408L11.2975 1.67123ZM3.43992 9.5711L1.6715 11.2962L4.14449 11.2662C3.80966 10.7481 3.57099 10.1739 3.43992 9.5711ZM13.5165 7.38384L15.285 5.65824L12.812 5.68845C13.1468 6.20664 13.3855 6.78095 13.5165 7.38384ZM4.14473 5.6882L1.67174 5.658L3.44016 7.38359C3.57069 6.78055 3.8094 6.20614 4.14473 5.6882ZM12.8117 11.2665L15.2847 11.2964L13.5163 9.5711C13.3858 10.1741 13.1471 10.7485 12.8117 11.2665ZM7.38467 3.43906L5.65898 1.67098L5.68918 4.14383C6.20738 3.80891 6.78173 3.57017 7.38467 3.43906ZM9.5718 13.5156L11.2975 15.2835L11.2673 12.8109C10.7491 13.1458 10.1747 13.3845 9.5718 13.5156ZM4.24247 11.4148L3.26826 13.6865L5.54036 12.7129C5.03392 12.3609 4.5944 11.9213 4.24247 11.4148ZM12.714 5.54012L13.6877 3.26814L11.4161 4.24181C11.9226 4.59389 12.3621 5.03356 12.714 5.54012ZM3.32106 8.47734C3.32106 8.16351 3.35372 7.85753 3.4075 7.55868L1.11084 8.4771L3.4075 9.39552C3.35132 9.09265 3.32239 8.78537 3.32106 8.47734ZM15.8456 8.47734L13.549 7.55868C13.6027 7.85753 13.6354 8.16351 13.6354 8.47734C13.6354 8.79118 13.6027 9.0974 13.549 9.39601L15.8456 8.47734ZM5.54085 4.24157L3.26875 3.2679L4.24247 5.53988C4.59493 5.03361 5.03455 4.594 5.54085 4.24157ZM11.4156 12.7129L13.6877 13.6865L12.714 11.4148C12.3619 11.9213 11.9222 12.3609 11.4156 12.7129ZM9.3967 3.40689L8.47823 1.11035L7.55976 3.40689C7.85814 3.35311 8.16414 3.32045 8.47823 3.32045C8.79233 3.32045 9.09832 3.35311 9.3967 3.40689ZM7.55976 13.5478L8.47823 15.8443L9.3967 13.5478C9.09832 13.6016 8.79233 13.6342 8.47823 13.6342C8.16414 13.6342 7.85814 13.6016 7.55976 13.5478Z" fill="#0B70A2"/>
<path d="M8.47827 13.143C11.0552 13.143 13.1443 11.0541 13.1443 8.47728C13.1443 5.90046 11.0552 3.81152 8.47827 3.81152C5.9013 3.81152 3.81226 5.90046 3.81226 8.47728C3.81226 11.0541 5.9013 13.143 8.47827 13.143Z" fill="#0B70A2"/>
</svg>
