<svg width="17" height="18" viewBox="0 0 17 18" fill="none" xmlns="http://www.w3.org/2000/svg">
<path d="M14.125 0.875H2.875C2.21218 0.875724 1.57672 1.13935 1.10803 1.60803C0.639348 2.07672 0.375724 2.71218 0.375 3.375V14.625C0.375724 15.2878 0.639348 15.9233 1.10803 16.392C1.57672 16.8607 2.21218 17.1243 2.875 17.125H14.125C14.7878 17.1243 15.4233 16.8607 15.892 16.392C16.3607 15.9233 16.6243 15.2878 16.625 14.625V3.375C16.6243 2.71218 16.3607 2.07672 15.892 1.60803C15.4233 1.13935 14.7878 0.875724 14.125 0.875ZM12.7285 6.27695L7.47852 12.527C7.42093 12.5955 7.34927 12.651 7.26839 12.6894C7.18752 12.7279 7.09932 12.7486 7.00977 12.75H6.99922C6.91162 12.75 6.825 12.7315 6.74499 12.6959C6.66497 12.6602 6.59335 12.6081 6.53477 12.543L4.28477 10.043C4.22762 9.98236 4.18317 9.91094 4.15403 9.83291C4.12488 9.75488 4.11162 9.67181 4.11504 9.58858C4.11846 9.50536 4.13848 9.42365 4.17392 9.34827C4.20936 9.27289 4.25952 9.20536 4.32143 9.14964C4.38335 9.09392 4.45578 9.05114 4.53447 9.02381C4.61315 8.99648 4.69651 8.98516 4.77963 8.99051C4.86276 8.99585 4.94398 9.01776 5.01851 9.05495C5.09305 9.09213 5.1594 9.14384 5.21367 9.20703L6.98281 11.1727L11.7715 5.47305C11.8789 5.34886 12.0309 5.27193 12.1945 5.25889C12.3582 5.24584 12.5205 5.29774 12.6462 5.40335C12.7719 5.50896 12.851 5.6598 12.8664 5.82327C12.8818 5.98675 12.8323 6.14971 12.7285 6.27695Z" fill="#0B70A2"/>
</svg>
