<svg width="21" height="20" viewBox="0 0 21 20" fill="none" xmlns="http://www.w3.org/2000/svg">
<path d="M16.125 1.875H4.875C4.21218 1.87572 3.57672 2.13935 3.10803 2.60803C2.63935 3.07672 2.37572 3.71218 2.375 4.375V15.625C2.37572 16.2878 2.63935 16.9233 3.10803 17.392C3.57672 17.8607 4.21218 18.1243 4.875 18.125H16.125C16.7878 18.1243 17.4233 17.8607 17.892 17.392C18.3607 16.9233 18.6243 16.2878 18.625 15.625V4.375C18.6243 3.71218 18.3607 3.07672 17.892 2.60803C17.4233 2.13935 16.7878 1.87572 16.125 1.875ZM14.7285 7.27695L9.47852 13.527C9.42093 13.5955 9.34927 13.651 9.26839 13.6894C9.18752 13.7279 9.09932 13.7486 9.00977 13.75H8.99922C8.91162 13.75 8.825 13.7315 8.74499 13.6959C8.66497 13.6602 8.59335 13.6081 8.53477 13.543L6.28477 11.043C6.22762 10.9824 6.18317 10.9109 6.15403 10.8329C6.12488 10.7549 6.11162 10.6718 6.11504 10.5886C6.11846 10.5054 6.13848 10.4237 6.17392 10.3483C6.20936 10.2729 6.25952 10.2054 6.32143 10.1496C6.38335 10.0939 6.45578 10.0511 6.53447 10.0238C6.61315 9.99648 6.69651 9.98516 6.77963 9.99051C6.86276 9.99585 6.94398 10.0178 7.01851 10.0549C7.09305 10.0921 7.1594 10.1438 7.21367 10.207L8.98281 12.1727L13.7715 6.47305C13.8789 6.34886 14.0309 6.27193 14.1945 6.25889C14.3582 6.24584 14.5205 6.29774 14.6462 6.40335C14.7719 6.50896 14.851 6.6598 14.8664 6.82327C14.8818 6.98675 14.8323 7.14971 14.7285 7.27695Z" fill="#0B70A2"/>
</svg>
