<svg width="24" height="24" viewBox="0 0 24 24" fill="none" xmlns="http://www.w3.org/2000/svg">
<path d="M5 7C5 6.44772 5.44772 6 6 6H19C19.5523 6 20 6.44772 20 7V8.41667C20 8.8769 19.6269 9.25 19.1667 9.25V9.25C18.7064 9.25 18.3333 9.6231 18.3333 10.0833V18.1667C18.3333 18.6269 17.9602 19 17.5 19V19C17.0398 19 16.6667 18.6269 16.6667 18.1667V10.25C16.6667 9.69772 16.219 9.25 15.6667 9.25H9.33333C8.78105 9.25 8.33333 9.69772 8.33333 10.25V18.1667C8.33333 18.6269 7.96024 19 7.5 19V19C7.03976 19 6.66667 18.6269 6.66667 18.1667V10.0833C6.66667 9.6231 6.29357 9.25 5.83333 9.25V9.25C5.3731 9.25 5 8.8769 5 8.41667V7ZM9.16667 10.875C9.16667 10.4263 9.53044 10.0625 9.97917 10.0625H15.0208C15.4696 10.0625 15.8333 10.4263 15.8333 10.875V10.875C15.8333 11.3237 15.4696 11.6875 15.0208 11.6875H9.97917C9.53044 11.6875 9.16667 11.3237 9.16667 10.875V10.875ZM9.16667 13.3125C9.16667 12.8638 9.53044 12.5 9.97917 12.5H15.0208C15.4696 12.5 15.8333 12.8638 15.8333 13.3125V13.3125C15.8333 13.7612 15.4696 14.125 15.0208 14.125H9.97917C9.53044 14.125 9.16667 13.7612 9.16667 13.3125V13.3125ZM9.16667 15.75C9.16667 15.3013 9.53044 14.9375 9.97917 14.9375H15.0208C15.4696 14.9375 15.8333 15.3013 15.8333 15.75V15.75C15.8333 16.1987 15.4696 16.5625 15.0208 16.5625H9.97917C9.53044 16.5625 9.16667 16.1987 9.16667 15.75V15.75ZM9.16667 18.1875C9.16667 17.7388 9.53044 17.375 9.97917 17.375H15.0208C15.4696 17.375 15.8333 17.7388 15.8333 18.1875V18.1875C15.8333 18.6362 15.4696 19 15.0208 19H9.97917C9.53044 19 9.16667 18.6362 9.16667 18.1875V18.1875Z" fill="white"/>
</svg>
