<svg width="16" height="16" viewBox="0 0 16 16" fill="none" xmlns="http://www.w3.org/2000/svg">
<path d="M6.47805 13.6661L11.6601 8.35012C11.7511 8.25675 11.802 8.13151 11.802 8.00112C11.802 7.87073 11.7511 7.7455 11.6601 7.65212L6.47805 2.33412C6.43565 2.29058 6.38497 2.25597 6.32897 2.23234C6.27298 2.20871 6.21283 2.19653 6.15205 2.19653C6.09128 2.19653 6.03112 2.20871 5.97513 2.23234C5.91914 2.25597 5.86845 2.29058 5.82605 2.33412C5.73882 2.42341 5.68999 2.54329 5.68999 2.66812C5.68999 2.79295 5.73882 2.91283 5.82605 3.00212L10.6991 8.00112L5.82605 12.9991C5.73912 13.0884 5.69047 13.208 5.69047 13.3326C5.69047 13.4572 5.73912 13.5769 5.82605 13.6661C5.86845 13.7097 5.91914 13.7443 5.97513 13.7679C6.03112 13.7915 6.09128 13.8037 6.15205 13.8037C6.21283 13.8037 6.27298 13.7915 6.32897 13.7679C6.38497 13.7443 6.43565 13.7097 6.47805 13.6661Z" fill="#726C56"/>
</svg>
