<svg width="24" height="25" viewBox="0 0 24 25" fill="none" xmlns="http://www.w3.org/2000/svg">
<path d="M14 8.5H4C2.897 8.5 2 9.397 2 10.5V20.5C2 21.603 2.897 22.5 4 22.5H14C15.103 22.5 16 21.603 16 20.5V10.5C16 9.397 15.103 8.5 14 8.5Z" fill="white"/>
<path d="M20 2.5H10C9.46957 2.5 8.96086 2.71071 8.58579 3.08579C8.21071 3.46086 8 3.96957 8 4.5V6.5H16C16.5304 6.5 17.0391 6.71071 17.4142 7.08579C17.7893 7.46086 18 7.96957 18 8.5V16.5H20C20.5304 16.5 21.0391 16.2893 21.4142 15.9142C21.7893 15.5391 22 15.0304 22 14.5V4.5C22 3.96957 21.7893 3.46086 21.4142 3.08579C21.0391 2.71071 20.5304 2.5 20 2.5Z" fill="white"/>
</svg>
