<svg width="32" height="32" viewBox="0 0 32 32" fill="none" xmlns="http://www.w3.org/2000/svg">
<circle cx="16" cy="16" r="15.5" stroke="white"/>
<path d="M13.73 16.77C13.524 16.77 13.3443 16.6933 13.191 16.54C13.0377 16.3867 12.961 16.2067 12.961 16C12.961 15.7933 13.0377 15.6133 13.191 15.46C13.3443 15.3067 13.5243 15.23 13.731 15.23C13.9377 15.23 14.1177 15.3067 14.271 15.46C14.4243 15.6133 14.5007 15.7933 14.5 16C14.4993 16.2067 14.4227 16.3867 14.27 16.54C14.1173 16.6933 13.9373 16.77 13.73 16.77ZM18.27 16.77C18.0633 16.77 17.8833 16.6933 17.73 16.54C17.5767 16.3867 17.5 16.2067 17.5 16C17.5 15.7933 17.5767 15.6133 17.73 15.46C17.8833 15.3067 18.0633 15.23 18.27 15.23C18.4767 15.23 18.6563 15.3067 18.809 15.46C18.9617 15.6133 19.0383 15.7933 19.039 16C19.0397 16.2067 18.963 16.3867 18.809 16.54C18.655 16.6933 18.475 16.77 18.269 16.77M8.5 24V23H9.5V9.616C9.5 9.15533 9.65433 8.771 9.963 8.463C10.2717 8.155 10.656 8.00067 11.116 8H20.885C21.345 8 21.7293 8.15433 22.038 8.463C22.3467 8.77167 22.5007 9.156 22.5 9.616V23H23.5V24H8.5ZM10.5 23H15.5V9H11.116C10.962 9 10.8207 9.064 10.692 9.192C10.5633 9.32 10.4993 9.46133 10.5 9.616V23ZM16.5 23H21.5V9.616C21.5 9.462 21.436 9.32067 21.308 9.192C21.18 9.06333 21.0387 8.99933 20.884 9H16.5V23Z" fill="white"/>
<path d="M12.573 20.177C12.5497 20.1538 12.5312 20.1262 12.5186 20.0958C12.506 20.0655 12.4995 20.0329 12.4995 20C12.4995 19.9671 12.506 19.9346 12.5186 19.9042C12.5312 19.8738 12.5497 19.8462 12.573 19.823L13.573 18.823C13.5962 18.7998 13.6238 18.7813 13.6542 18.7687C13.6845 18.7562 13.7171 18.7497 13.75 18.7497C13.7828 18.7497 13.8154 18.7562 13.8458 18.7687C13.8761 18.7813 13.9037 18.7998 13.927 18.823C13.9502 18.8463 13.9686 18.8738 13.9812 18.9042C13.9938 18.9346 14.0003 18.9671 14.0003 19C14.0003 19.0329 13.9938 19.0654 13.9812 19.0958C13.9686 19.1262 13.9502 19.1538 13.927 19.177L13.3535 19.75H18.6465L18.073 19.177C18.026 19.1301 17.9996 19.0664 17.9996 19C17.9996 18.9336 18.026 18.87 18.073 18.823C18.1199 18.7761 18.1836 18.7497 18.25 18.7497C18.3163 18.7497 18.38 18.7761 18.427 18.823L19.427 19.823C19.4502 19.8462 19.4687 19.8738 19.4813 19.9042C19.4939 19.9346 19.5004 19.9671 19.5004 20C19.5004 20.0329 19.4939 20.0655 19.4813 20.0958C19.4687 20.1262 19.4502 20.1538 19.427 20.177L18.427 21.177C18.38 21.224 18.3163 21.2503 18.25 21.2503C18.1836 21.2503 18.1199 21.224 18.073 21.177C18.026 21.1301 17.9996 21.0664 17.9996 21C17.9996 20.9336 18.026 20.87 18.073 20.823L18.6465 20.25H13.3535L13.927 20.823C13.9739 20.87 14.0003 20.9336 14.0003 21C14.0003 21.0664 13.9739 21.1301 13.927 21.177C13.88 21.224 13.8163 21.2503 13.75 21.2503C13.6836 21.2503 13.6199 21.224 13.573 21.177L12.573 20.177Z" fill="white"/>
</svg>
